<svg viewBox="0 0 326.065 185.975" xmlns="http://www.w3.org/2000/svg" xmlns:xlink="http://www.w3.org/1999/xlink" width="326.065338" height="185.974609" fill="none" customFrame="#000000">
	<path id="Subtract" d="M51 1L249.67 1C249.302 3.76078 249.113 6.57782 249.113 9.4392C249.113 44.3955 277.45 72.7332 312.407 72.7332C316.742 72.7332 320.975 72.2974 325.065 71.4671L325.065 134.975C325.065 162.589 302.68 184.975 275.065 184.975L51 184.975C23.3858 184.975 1 162.589 1 134.975L1 51C1 23.3858 23.3858 1 51 1ZM51 2Q47.3711 2 43.8189 2.52204L43.8175 2.52224L43.8153 2.52256Q42.464 2.72126 41.1237 2.99552Q38.7344 3.48445 36.4174 4.20572L36.4172 4.20576L36.4169 4.20587L36.4162 4.2061Q34.1367 4.91574 31.9273 5.85025Q30.0727 6.6347 28.2949 7.56584L28.2947 7.56591L28.2946 7.56595L28.2946 7.56597Q25.8785 8.83144 23.6043 10.3678Q21.8079 11.5815 20.1314 12.9429L20.1311 12.9431Q18.1584 14.5452 16.3518 16.3518Q14.5454 18.1581 12.9436 20.1306L12.9435 20.1306L12.9433 20.1309L12.9433 20.131Q11.5817 21.8076 10.3678 23.6043Q8.83167 25.8782 7.56636 28.2939L7.56625 28.2941L7.56622 28.2941Q6.63486 30.0723 5.85025 31.9273Q4.91558 34.1371 4.20586 36.4169Q3.4845 38.7342 2.99552 41.1237Q2.72091 42.4657 2.52205 43.8189Q2 47.3711 2 51L2 134.975C2 138.315 2.33184 141.608 2.99552 144.851Q3.48339 147.235 4.20261 149.547L4.20318 149.549L4.20339 149.55L4.2037 149.551Q4.91416 151.834 5.85025 154.047Q6.6335 155.899 7.56301 157.674L7.5636 157.675L7.56404 157.676L7.56427 157.677Q8.8304 160.095 10.3678 162.37C12.1291 164.977 14.1237 167.395 16.3518 169.623Q18.1637 171.435 20.1428 173.041L20.1438 173.042L20.1447 173.042Q21.815 174.398 23.6043 175.607C26.2362 177.385 29.0105 178.891 31.9273 180.124C34.8978 181.381 37.9633 182.332 41.1237 182.979C44.3672 183.643 47.6593 183.975 51 183.975L275.065 183.975C278.406 183.975 281.698 183.643 284.942 182.979C288.102 182.332 291.168 181.381 294.138 180.124C297.055 178.891 299.829 177.385 302.461 175.607C305.068 173.845 307.486 171.851 309.714 169.623C311.942 167.395 313.936 164.977 315.698 162.37C317.475 159.739 318.981 156.964 320.215 154.047C321.472 151.077 322.423 148.011 323.07 144.851C323.733 141.607 324.065 138.315 324.065 134.975L324.065 72.6787C320.23 73.3817 316.344 73.7332 312.407 73.7332C308.024 73.7332 303.706 73.2978 299.45 72.427C295.302 71.5782 291.279 70.3293 287.38 68.6803C283.552 67.0612 279.912 65.0852 276.458 62.7522Q274.075 61.1419 271.852 59.3334L271.852 59.3327Q269.291 57.2488 266.944 54.9019C264.021 51.9789 261.404 48.8074 259.094 45.3873Q257.099 42.435 255.452 39.3L255.452 39.2993Q254.21 36.9344 253.165 34.4656C251.516 30.5669 250.268 26.5435 249.419 22.3956C248.548 18.14 248.113 13.8212 248.113 9.43922C248.113 6.94249 248.254 4.46275 248.538 2L51 2Z" fill="rgb(255,255,255)" fill-rule="evenodd" />
</svg>
