<svg viewBox="0 0 24 24" xmlns="http://www.w3.org/2000/svg" xmlns:xlink="http://www.w3.org/1999/xlink" width="24.000000" height="24.000000" fill="none">
	<rect id="check 1" width="24.000000" height="24.000000" x="0.000000" y="0.000000" fill="rgb(255,255,255)" fill-opacity="0" />
	<path id="Vector" d="M5 2L19 2C20.6569 2 22 3.34315 22 5L22 19C22 20.6569 20.6569 22 19 22L5 22C3.34315 22 2 20.6569 2 19L2 5C2 3.34315 3.34315 2 5 2ZM10.25 16.63L17.71 8.69C18.0485 8.29761 18.0311 7.71166 17.67 7.34C17.4822 7.15069 17.2266 7.0442 16.96 7.0442C16.6934 7.0442 16.4378 7.15069 16.25 7.34L9.52 14.5L7.76 12.63C7.52305 12.3401 7.14399 12.2068 6.77775 12.2847C6.41151 12.3626 6.11945 12.6385 6.02094 12.9998C5.92244 13.361 6.03399 13.747 6.31 14L8.79 16.63C8.9802 16.8295 9.24434 16.9417 9.52 16.94C9.79566 16.9417 10.0598 16.8295 10.25 16.63Z" fill="rgb(138.164,120.451,160.601)" fill-rule="evenodd" />
</svg>
