<svg viewBox="0 0 154 35" xmlns="http://www.w3.org/2000/svg" xmlns:xlink="http://www.w3.org/1999/xlink" width="154.000000" height="35.000000" fill="none" customFrame="url(#clipPath_2)">
	<defs>
		<clipPath id="clipPath_2">
			<rect width="154.000000" height="35.000000" x="0.000000" y="0.000000" rx="17.500000" fill="rgb(255,255,255)" />
		</clipPath>
		<clipPath id="clipPath_3">
			<rect width="24.000000" height="19.000000" x="120.000000" y="8.000000" fill="rgb(255,255,255)" />
		</clipPath>
		<clipPath id="clipPath_4">
			<rect width="16.000000" height="19.000000" x="120.000000" y="8.000000" fill="rgb(255,255,255)" />
		</clipPath>
	</defs>
	<rect id="Frame 2609602" width="153.000000" height="34.000000" x="0.500000" y="0.500000" rx="17.000000" stroke="rgb(75.2487,49.0385,98.0769)" stroke-width="1" />
	<path id="SEO Кейсы" d="M21.0751 22.908C20.4885 22.908 19.9285 22.86 19.3951 22.764C18.8725 22.6573 18.3871 22.508 17.9391 22.316C17.5018 22.1133 17.1125 21.8733 16.7711 21.596L17.2991 20.284C17.6618 20.5507 18.0351 20.7747 18.4191 20.956C18.8031 21.1373 19.2138 21.276 19.6511 21.372C20.0885 21.4573 20.5631 21.5 21.0751 21.5C21.9818 21.5 22.6485 21.34 23.0751 21.02C23.5125 20.6893 23.7311 20.2627 23.7311 19.74C23.7311 19.452 23.6618 19.2067 23.5231 19.004C23.3951 18.8013 23.1818 18.6307 22.8831 18.492C22.5845 18.3427 22.1951 18.22 21.7151 18.124L20.0031 17.772C18.9898 17.5587 18.2325 17.2067 17.7311 16.716C17.2405 16.2253 16.9951 15.564 16.9951 14.732C16.9951 14.0493 17.1765 13.452 17.5391 12.94C17.9018 12.428 18.3978 12.0333 19.0271 11.756C19.6671 11.4787 20.4031 11.34 21.2351 11.34C21.7471 11.34 22.2325 11.3933 22.6911 11.5C23.1605 11.596 23.5925 11.7453 23.9871 11.948C24.3925 12.1507 24.7445 12.396 25.0431 12.684L24.4991 13.948C24.0405 13.5427 23.5445 13.244 23.0111 13.052C22.4778 12.8493 21.8805 12.748 21.2191 12.748C20.6965 12.748 20.2378 12.828 19.8431 12.988C19.4591 13.148 19.1605 13.372 18.9471 13.66C18.7445 13.948 18.6431 14.2893 18.6431 14.684C18.6431 15.132 18.7871 15.4893 19.0751 15.756C19.3631 16.0227 19.8431 16.2253 20.5151 16.364L22.2111 16.716C23.2778 16.94 24.0725 17.2867 24.5951 17.756C25.1178 18.2253 25.3791 18.8493 25.3791 19.628C25.3791 20.2787 25.2031 20.8547 24.8511 21.356C24.4991 21.8467 24.0031 22.2307 23.3631 22.508C22.7231 22.7747 21.9605 22.908 21.0751 22.908ZM28.0682 22.764L28.0682 11.484L35.3643 11.484L35.3643 12.828L29.6682 12.828L29.6682 16.364L35.0283 16.364L35.0283 17.708L29.6682 17.708L29.6682 21.42L35.3643 21.42L35.3643 22.764L28.0682 22.764ZM43.1549 22.908C42.3549 22.908 41.6295 22.7747 40.9789 22.508C40.3282 22.2413 39.7682 21.852 39.2989 21.34C38.8402 20.828 38.4882 20.22 38.2429 19.516C37.9975 18.8013 37.8749 18.0013 37.8749 17.116C37.8749 16.2307 37.9975 15.436 38.2429 14.732C38.4882 14.0173 38.8402 13.4093 39.2989 12.908C39.7575 12.396 40.3122 12.0067 40.9629 11.74C41.6135 11.4733 42.3442 11.34 43.1549 11.34C43.9549 11.34 44.6802 11.4733 45.3309 11.74C45.9815 12.0067 46.5362 12.3907 46.9949 12.892C47.4642 13.3933 47.8215 14.0013 48.0669 14.716C48.3122 15.42 48.4349 16.2147 48.4349 17.1C48.4349 17.9853 48.3122 18.7853 48.0669 19.5C47.8215 20.2147 47.4642 20.828 46.9949 21.34C46.5362 21.852 45.9815 22.2413 45.3309 22.508C44.6802 22.7747 43.9549 22.908 43.1549 22.908ZM43.1549 21.468C43.9015 21.468 44.5362 21.2973 45.0589 20.956C45.5922 20.6147 45.9975 20.1187 46.2749 19.468C46.5629 18.8173 46.7069 18.0333 46.7069 17.116C46.7069 16.1987 46.5682 15.4147 46.2909 14.764C46.0135 14.1133 45.6082 13.6227 45.0749 13.292C44.5522 12.9507 43.9122 12.78 43.1549 12.78C42.4082 12.78 41.7682 12.9507 41.2349 13.292C40.7122 13.6227 40.3069 14.1133 40.0189 14.764C39.7415 15.4147 39.6029 16.1987 39.6029 17.116C39.6029 18.0227 39.7415 18.8067 40.0189 19.468C40.3069 20.1187 40.7122 20.6147 41.2349 20.956C41.7682 21.2973 42.4082 21.468 43.1549 21.468ZM56.4683 22.764L56.4683 11.484L58.1323 11.484L58.1323 16.396L60.1483 16.396L59.7643 16.668L63.1082 11.484L64.9482 11.484L61.3162 16.956L60.6922 16.46C61.1296 16.5133 61.5243 16.6413 61.8763 16.844C62.2389 17.036 62.5589 17.2973 62.8363 17.628C63.1243 17.948 63.3802 18.3373 63.6042 18.796L65.5403 22.764L63.7482 22.764L62.2122 19.484C61.9243 18.876 61.5882 18.444 61.2043 18.188C60.8203 17.9213 60.3456 17.788 59.7803 17.788L58.1323 17.788L58.1323 22.764L56.4683 22.764ZM67.7682 22.764L67.7682 11.484L75.0643 11.484L75.0643 12.828L69.3682 12.828L69.3682 16.364L74.7282 16.364L74.7282 17.708L69.3682 17.708L69.3682 21.42L75.0643 21.42L75.0643 22.764L67.7682 22.764ZM77.9901 22.764L77.9901 11.484L79.5261 11.484L79.5261 20.54L79.1741 20.54L86.0061 11.484L87.2541 11.484L87.2541 22.764L85.7181 22.764L85.7181 13.708L86.0541 13.708L79.2381 22.764L77.9901 22.764ZM82.6141 10.604C82.1021 10.604 81.6381 10.5187 81.2221 10.348C80.8168 10.1773 80.4648 9.932 80.1661 9.612C79.8781 9.28133 79.6648 8.892 79.5261 8.444L80.4061 8.124C80.6301 8.65733 80.9181 9.04667 81.2701 9.292C81.6221 9.52667 82.0755 9.644 82.6301 9.644C83.1848 9.644 83.6328 9.52667 83.9741 9.292C84.3261 9.05733 84.6355 8.67333 84.9021 8.14L85.7661 8.444C85.4781 9.19067 85.0568 9.74 84.5021 10.092C83.9581 10.4333 83.3288 10.604 82.6141 10.604ZM95.7367 22.908C94.5954 22.908 93.6194 22.6733 92.8087 22.204C91.9981 21.7347 91.3741 21.068 90.9367 20.204C90.5101 19.3293 90.2967 18.3 90.2967 17.116C90.2967 15.932 90.5101 14.908 90.9367 14.044C91.3741 13.18 91.9981 12.5133 92.8087 12.044C93.6194 11.5747 94.5954 11.34 95.7367 11.34C96.5047 11.34 97.2194 11.4627 97.8807 11.708C98.5527 11.9427 99.1127 12.284 99.5607 12.732L98.9847 14.06C98.4941 13.6227 97.9874 13.308 97.4647 13.116C96.9527 12.9133 96.3927 12.812 95.7847 12.812C94.5687 12.812 93.6407 13.1853 93.0007 13.932C92.3607 14.6787 92.0407 15.74 92.0407 17.116C92.0407 18.492 92.3607 19.5587 93.0007 20.316C93.6407 21.0627 94.5687 21.436 95.7847 21.436C96.3927 21.436 96.9527 21.34 97.4647 21.148C97.9874 20.9453 98.4941 20.6253 98.9847 20.188L99.5607 21.516C99.1127 21.964 98.5527 22.3107 97.8807 22.556C97.2194 22.7907 96.5047 22.908 95.7367 22.908ZM102.293 22.764L102.293 11.484L103.957 11.484L103.957 16.332L106.709 16.332C107.499 16.332 108.176 16.4547 108.741 16.7C109.307 16.9453 109.739 17.3027 110.037 17.772C110.336 18.2413 110.485 18.828 110.485 19.532C110.485 20.236 110.336 20.828 110.037 21.308C109.739 21.788 109.307 22.1507 108.741 22.396C108.176 22.6413 107.499 22.764 106.709 22.764L102.293 22.764ZM103.957 21.42L106.517 21.42C107.317 21.42 107.909 21.2653 108.293 20.956C108.677 20.6467 108.869 20.1773 108.869 19.548C108.869 18.908 108.677 18.4387 108.293 18.14C107.909 17.8307 107.317 17.676 106.517 17.676L103.957 17.676L103.957 21.42ZM112.021 22.764L112.021 11.484L113.669 11.484L113.669 22.764L112.021 22.764Z" fill="rgb(143.026,106.199,175.312)" fill-rule="nonzero" />
	<g id="Frame 2609610" customFrame="url(#clipPath_3)">
		<rect id="Frame 2609610" width="24.000000" height="19.000000" x="120.000000" y="8.000000" />
		<g id="Frame 2609611" customFrame="url(#clipPath_4)">
			<rect id="Frame 2609611" width="16.000000" height="19.000000" x="120.000000" y="8.000000" />
			<path id="Star 1" d="M130.161 13.8393L136 16L130.161 18.1607L128 24L125.839 18.1607L120 16L125.839 13.8393L128 8L130.161 13.8393Z" fill="rgb(143.026,106.199,175.312)" fill-rule="evenodd" />
		</g>
		<path id="Star 2" d="M140.35 20.6495L144 22L140.35 23.3505L139 27L137.65 23.3505L134 22L137.65 20.6495L139 17L140.35 20.6495Z" fill="rgb(143.026,106.199,175.312)" fill-rule="evenodd" />
	</g>
</svg>
