<svg viewBox="0 0 42 42" xmlns="http://www.w3.org/2000/svg" xmlns:xlink="http://www.w3.org/1999/xlink" width="42.000000" height="42.000000" fill="none" customFrame="#000000">
	<defs>
		<clipPath id="clipPath_0">
			<rect width="22.000000" height="22.000000" x="9.000000" y="10.000000" fill="rgb(255,255,255)" />
		</clipPath>
	</defs>
	<g id="Group 127">
		<rect id="Rectangle 1274" width="41.000000" height="41.000000" x="0.500000" y="0.500000" rx="5.500000" stroke="rgb(69.042,37.1325,110.337)" stroke-width="1" />
		<g id="telegram (1) 2" clip-path="url(#clipPath_0)" customFrame="url(#clipPath_0)">
			<rect id="telegram (1) 2" width="22.000000" height="22.000000" x="9.000000" y="10.000000" fill="rgb(255,255,255)" fill-opacity="0" />
			<g id="XMLID_496_">
				<path id="XMLID_497_" d="M9.38761 20.6074L14.4568 22.4994L16.419 28.8096C16.5445 29.2137 17.0387 29.3631 17.3667 29.0949L20.1924 26.7914C20.4886 26.55 20.9105 26.538 21.22 26.7627L26.3165 30.4629C26.6674 30.7179 27.1646 30.5256 27.2526 30.1016L30.986 12.1429C31.0821 11.6798 30.627 11.2934 30.186 11.464L9.38167 19.4896C8.86826 19.6876 8.87274 20.4145 9.38761 20.6074ZM16.1027 21.4923L26.0099 15.3904C26.188 15.2811 26.3712 15.5219 26.2183 15.6637L18.042 23.2639C17.7546 23.5315 17.5692 23.8895 17.5167 24.2781L17.2382 26.3421C17.2013 26.6177 16.8141 26.6451 16.7381 26.3783L15.6669 22.6145C15.5442 22.1852 15.723 21.7267 16.1027 21.4923Z" fill="rgb(124,85,174)" fill-rule="nonzero" />
			</g>
		</g>
	</g>
</svg>
