<svg viewBox="0 0 42 42" xmlns="http://www.w3.org/2000/svg" xmlns:xlink="http://www.w3.org/1999/xlink" width="42.000000" height="42.000000" fill="none" customFrame="#000000">
	<defs>
		<clipPath id="clipPath_1">
			<rect width="22.000000" height="22.000000" x="10.000000" y="10.000000" fill="rgb(255,255,255)" />
		</clipPath>
	</defs>
	<g id="Group 128">
		<rect id="Rectangle 1274" width="41.000000" height="41.000000" x="0.500000" y="0.500000" rx="5.500000" stroke="rgb(69.042,37.1325,110.337)" stroke-width="1" />
		<g id="whatsapp (1) 1" clip-path="url(#clipPath_1)" customFrame="url(#clipPath_1)">
			<rect id="whatsapp (1) 1" width="22.000000" height="22.000000" x="10.000000" y="10.000000" fill="rgb(255,255,255)" fill-opacity="0" />
			<g id="Group">
				<g id="Group">
					<path id="Vector" d="M21.0008 10L20.9953 10C14.9302 10 9.99805 14.9335 9.99805 21C9.99805 23.4062 10.7735 25.6365 12.0922 27.4474L10.7213 31.5339L14.9494 30.1823C16.6888 31.3345 18.7637 32 21.0008 32C27.0659 32 31.998 27.0651 31.998 21C31.998 14.9349 27.0659 10 21.0008 10ZM27.4014 25.5334C27.136 26.2827 26.0828 26.9042 25.2427 27.0857C24.6679 27.2081 23.9172 27.3058 21.3899 26.258C18.1573 24.9188 16.0755 21.6339 15.9133 21.4207C15.7579 21.2076 14.607 19.6814 14.607 18.1029C14.607 16.5244 15.4087 15.7558 15.7318 15.4258C15.9972 15.1549 16.4358 15.0311 16.8565 15.0311C16.9927 15.0311 17.115 15.038 17.225 15.0435C17.5482 15.0573 17.7104 15.0765 17.9235 15.5866C18.1889 16.226 18.8352 17.8045 18.9122 17.9668C18.9905 18.129 19.0689 18.349 18.9589 18.5621C18.8558 18.7821 18.765 18.8797 18.6028 19.0667C18.4405 19.2537 18.2865 19.3967 18.1243 19.5975C17.9758 19.7721 17.808 19.9591 17.995 20.2822C18.182 20.5985 18.8283 21.6531 19.7798 22.5001C21.0077 23.5933 22.0032 23.9425 22.3593 24.091C22.6247 24.201 22.9409 24.1749 23.1348 23.9686C23.3809 23.7033 23.6848 23.2633 23.9942 22.8301C24.2142 22.5194 24.4919 22.4809 24.7834 22.5909C25.0804 22.694 26.652 23.4709 26.9752 23.6317C27.2983 23.794 27.5114 23.871 27.5898 24.0071C27.6668 24.1432 27.6668 24.7826 27.4014 25.5334Z" fill="rgb(124,85,174)" fill-rule="nonzero" />
				</g>
			</g>
		</g>
	</g>
</svg>
